<?xml version="1.0" encoding="utf-8"?>
<!-- Generator: Adobe Illustrator 26.5.0, SVG Export Plug-In . SVG Version: 6.00 Build 0)  -->
<svg version="1.1" id="Layer_1" xmlns="http://www.w3.org/2000/svg" xmlns:xlink="http://www.w3.org/1999/xlink" x="0px" y="0px"
	 viewBox="0 0 66 66" style="enable-background:new 0 0 66 66;" xml:space="preserve">
<style type="text/css">
	.st0{fill:#76B900;}
	.st1{fill:none;}
</style>
<g id="m48-download" transform="translate(24.393 24.393)">
	<g id="Group_331" transform="translate(-24 -24)">
		<path id="Path_131" class="st0" d="M46.2,45l-1.4,5.1H20.4L19,45h-6.2l2.7,10.2h34.1L52.6,45H46.2z M48.7,53.9H16.5l-2.1-7.7H18
			l1.4,5.1h26.5l1.4-5.1h3.7L48.7,53.9z M49.3,27.2h-8.4v-6.4H24.3v6.4h-8.4l16.7,19.5L49.3,27.2z M25.6,28.4v-6.4h14v6.4h6.9
			L32.6,44.7L18.7,28.4H25.6z M40.9,10.6H24.3v7.7h16.6V10.6z M39.6,17h-14v-5.1h14L39.6,17z"/>
		<rect id="Rectangle_413" x="1.6" y="1.9" class="st1" width="62" height="62"/>
	</g>
</g>
</svg>
