<?xml version="1.0" encoding="utf-8"?>
<!-- Generator: Adobe Illustrator 26.5.0, SVG Export Plug-In . SVG Version: 6.00 Build 0)  -->
<svg version="1.1" id="Layer_1" xmlns="http://www.w3.org/2000/svg" xmlns:xlink="http://www.w3.org/1999/xlink" x="0px" y="0px"
	 viewBox="0 0 66 66" style="enable-background:new 0 0 66 66;" xml:space="preserve">
<style type="text/css">
	.st0{fill-rule:evenodd;clip-rule:evenodd;fill:#76B900;}
	.st1{fill:none;}
</style>
<g id="ray-tracing-icon" transform="translate(0.01)">
	<path id="_Compound_Path_" class="st0" d="M33.1,29.8c-7.3-0.1-13.2,5.8-13.3,13c-0.1,7.3,5.8,13.2,13,13.3s13.2-5.8,13.3-13
		c0,0,0-0.1,0-0.1C46.1,35.7,40.3,29.9,33.1,29.8z M33.1,31.1c2.7,0,5.3,0.9,7.4,2.6c0.3,0.6,0.6,1.2,0.8,1.9l1.9,1.3
		c0.3,0.5,0.6,1,0.8,1.5l-2.5-1.6c0.1,0.5,0.2,1.1,0.2,1.6l2.8,1.8c0.1,0.4,0.2,0.8,0.2,1.2l-3-2c0,0.5,0,1-0.1,1.4l3.2,2.1v0
		c0,0.3,0,0.6,0,1l-3.3-2.2c-0.1,0.4-0.2,0.9-0.3,1.3l3.5,2.3c-0.1,0.3-0.1,0.6-0.2,0.9l-3.5-2.3c-0.2,0.4-0.3,0.8-0.5,1.2l3.7,2.4
		c-0.1,0.3-0.2,0.5-0.4,0.8l-3.7-2.4c-0.2,0.4-0.5,0.7-0.7,1l3.8,2.5c-0.1,0.2-0.3,0.5-0.5,0.7l-3.9-2.5c-0.3,0.3-0.6,0.6-0.9,0.9
		l4,2.6c-0.2,0.2-0.4,0.4-0.6,0.6l-4-2.6c-0.3,0.3-0.7,0.5-1.1,0.8l4.1,2.7c-0.2,0.2-0.5,0.4-0.7,0.5l-4.2-2.7
		c-0.4,0.2-0.9,0.4-1.3,0.6l4.3,2.8c-0.3,0.1-0.6,0.3-0.9,0.4l-4.4-2.9c-0.6,0.2-1.1,0.3-1.7,0.4l4.6,3c-0.4,0.1-0.8,0.2-1.2,0.2
		l-4.7-3.1c-0.2,0-0.3,0-0.5,0c-0.7,0-1.4-0.1-2.1-0.2l5,3.3c-0.7,0-1.4-0.1-2-0.3l-5.9-3.9c-0.2-0.1-0.3-0.2-0.5-0.2
		c-4.1-5.1-3.3-12.6,1.8-16.8C27.8,32,30.4,31.1,33.1,31.1L33.1,31.1z M56.3,14.1l-5.9-5.9l-4.6,4.6l1.1,1.1l-2.5,1.3l4.9,5l1.2-2.5
		l1.1,1.1L56.3,14.1z M50.4,10l4.1,4.1L51.7,17l-4.1-4.1L50.4,10z M49,18.1l-2.5-2.5l1.3-0.7l1.9,1.9L49,18.1z M42.4,18.5h3.7v3.8
		h-1.2v-1.6l-8,8.1L21,15.5l0.8-1l15,12.6l7.2-7.3h-1.6L42.4,18.5L42.4,18.5z M42.4,24.8h3.7v3.8h-1.2v-1.6l-3.1,3.1l-0.9-0.9L44,26
		h-1.6L42.4,24.8L42.4,24.8z M14.4,8.5c-2.4,0-4.4,2-4.3,4.4c0,1.7,1,3.2,2.5,3.9v2.9h1.2v0.6H15v-0.6h1.2v-3c2.2-1.1,3.1-3.7,2-5.9
		C17.6,9.5,16.1,8.5,14.4,8.5L14.4,8.5z M15,17.3v1.3h-1.2v-1.3H15z M15.5,15.8l1-1.9l-1.1-0.6l-1,1.9l-1-1.9l-1.1,0.6l1,1.9
		c-1.6-0.6-2.4-2.4-1.8-4c0.6-1.6,2.4-2.4,4-1.8c1.6,0.6,2.4,2.4,1.8,4C17,14.8,16.4,15.5,15.5,15.8L15.5,15.8z"/>
	<path id="_Rectangle_" class="st1" d="M0,0.3h66v66H0V0.3z"/>
</g>
</svg>
