<?xml version="1.0" encoding="utf-8"?>
<!-- Generator: Adobe Illustrator 26.5.0, SVG Export Plug-In . SVG Version: 6.00 Build 0)  -->
<svg version="1.1" id="Layer_1" xmlns="http://www.w3.org/2000/svg" xmlns:xlink="http://www.w3.org/1999/xlink" x="0px" y="0px"
	 viewBox="0 0 66 66" style="enable-background:new 0 0 66 66;" xml:space="preserve">
<style type="text/css">
	.st0{fill:#76B900;}
	.st1{fill:none;}
</style>
<g id="m48-gpu-chip" transform="translate(24.354 24.354)">
	<g id="Group_325" transform="translate(-24 -24)">
		<path id="Path_125" class="st0" d="M40.5,11.2H10.9v43.5h43.5V11.2H40.5z M51.8,25.8V40l1.3,0.4v13h-13l-0.4-1.3H25.6l-0.4,1.3
			h-13v-13l1.3-0.4V25.8l-1.3-0.4v-13h13l0.4,1.3h14.2l0.4-1.3h13v13L51.8,25.8z M17.5,17.8h2.6v2.6h-2.6V17.8z M21.4,17.8h2.6v2.6
			h-2.6V17.8z M25.4,17.8H28v2.6h-2.6L25.4,17.8z M29.4,17.8H32v2.6h-2.6L29.4,17.8z M33.3,17.8H36v2.6h-2.6L33.3,17.8z M37.3,17.8
			h2.6v2.6h-2.6L37.3,17.8z M41.2,17.8h2.6v2.6h-2.6L41.2,17.8z M45.2,17.8h2.6v2.6h-2.6L45.2,17.8z M17.5,21.7h2.6v2.6h-2.6V21.7z
			 M21.4,21.7h2.6v2.6h-2.6V21.7z M25.4,21.7H28v2.6h-2.6L25.4,21.7z M29.4,21.7H32v2.6h-2.6L29.4,21.7z M33.3,21.7H36v2.6h-2.6
			L33.3,21.7z M37.3,21.7h2.6v2.6h-2.6L37.3,21.7z M41.2,21.7h2.6v2.6h-2.6L41.2,21.7z M45.2,21.7h2.6v2.6h-2.6L45.2,21.7z
			 M17.5,25.7h2.6v2.6h-2.6V25.7z M21.4,25.7h2.6v2.6h-2.6V25.7z M25.4,25.7H28v2.6h-2.6V25.7z M29.4,25.7H32v2.6h-2.6L29.4,25.7z
			 M33.3,25.7h2.6v2.6h-2.6L33.3,25.7z M37.3,25.7h2.6v2.6h-2.6L37.3,25.7z M41.2,25.7h2.6v2.6h-2.6L41.2,25.7z M45.2,25.7h2.6v2.6
			h-2.6L45.2,25.7z M17.5,29.6h2.6v2.6h-2.6V29.6z M21.4,29.6h2.6v2.6h-2.6V29.6z M25.4,29.6H28v2.6h-2.6L25.4,29.6z M29.4,29.6H32
			v2.6h-2.6L29.4,29.6z M33.3,29.6H36v2.6h-2.6L33.3,29.6z M37.3,29.6h2.6v2.6h-2.6L37.3,29.6z M41.2,29.6h2.6v2.6h-2.6L41.2,29.6z
			 M45.2,29.6h2.6v2.6h-2.6L45.2,29.6z M17.5,33.6h2.6v2.6h-2.6V33.6z M21.4,33.6h2.6v2.6h-2.6V33.6z M25.4,33.6H28v2.6h-2.6
			L25.4,33.6z M29.4,33.6H32v2.6h-2.6L29.4,33.6z M33.3,33.6H36v2.6h-2.6L33.3,33.6z M37.3,33.6h2.6v2.6h-2.6L37.3,33.6z M41.2,33.6
			h2.6v2.6h-2.6L41.2,33.6z M45.2,33.6h2.6v2.6h-2.6L45.2,33.6z M17.5,37.6h2.6v2.6h-2.6V37.6z M21.4,37.6h2.6v2.6h-2.6V37.6z
			 M25.4,37.6H28v2.6h-2.6L25.4,37.6z M29.4,37.6H32v2.6h-2.6L29.4,37.6z M33.3,37.6H36v2.6h-2.6L33.3,37.6z M37.3,37.6h2.6v2.6
			h-2.6L37.3,37.6z M41.2,37.6h2.6v2.6h-2.6L41.2,37.6z M45.2,37.6h2.6v2.6h-2.6L45.2,37.6z M17.5,41.5h2.6v2.6h-2.6V41.5z
			 M21.4,41.5h2.6v2.6h-2.6V41.5z M25.4,41.5H28v2.6h-2.6L25.4,41.5z M29.4,41.5H32v2.6h-2.6L29.4,41.5z M33.3,41.5H36v2.6h-2.6
			L33.3,41.5z M37.3,41.5h2.6v2.6h-2.6L37.3,41.5z M41.2,41.5h2.6v2.6h-2.6L41.2,41.5z M45.2,41.5h2.6v2.6h-2.6L45.2,41.5z
			 M17.5,45.5h2.6v2.6h-2.6V45.5z M21.4,45.5h2.6v2.6h-2.6V45.5z M25.4,45.5H28v2.6h-2.6L25.4,45.5z M29.4,45.5H32v2.6h-2.6
			L29.4,45.5z M33.3,45.5H36v2.6h-2.6L33.3,45.5z M37.3,45.5h2.6v2.6h-2.6L37.3,45.5z M41.2,45.5h2.6v2.6h-2.6L41.2,45.5z
			 M45.2,45.5h2.6v2.6h-2.6L45.2,45.5z"/>
		<rect id="Rectangle_407" x="0.7" y="0.9" class="st1" width="64" height="64"/>
	</g>
</g>
</svg>
