<?xml version="1.0" encoding="utf-8"?>
<!-- Generator: Adobe Illustrator 26.5.0, SVG Export Plug-In . SVG Version: 6.00 Build 0)  -->
<svg version="1.1" id="Layer_1" xmlns="http://www.w3.org/2000/svg" xmlns:xlink="http://www.w3.org/1999/xlink" x="0px" y="0px"
	 viewBox="0 0 66 66" style="enable-background:new 0 0 66 66;" xml:space="preserve">
<style type="text/css">
	.st0{fill:#76B900;}
	.st1{fill:none;}
</style>
<g id="m48-nvidia-gpu-cloud-ngc-catalog" transform="translate(-56.225 23.775)">
	<g id="Group_327" transform="translate(56 -24)">
		<path id="Path_127" class="st0" d="M55.4,39.6V11.4H15.1v4.2h-4v3.9h-4V49h35.2c1.1,4.7,5.8,7.6,10.5,6.5
			c4.7-1.1,7.6-5.8,6.5-10.5C58.7,42.7,57.3,40.8,55.4,39.6L55.4,39.6z M16.5,12.7h37.6v26.2c-0.9-0.4-1.8-0.6-2.7-0.6V15.6H16.5
			V12.7z M12.4,16.9H50v21.4c-0.9,0.1-1.8,0.3-2.7,0.6V19.4H12.4V16.9z M8.4,47.6V20.8H46v18.8h0.1c-2.5,1.6-4.1,4.4-4.1,7.4
			c0,0.2,0,0.4,0,0.7L8.4,47.6z M50.7,54.3c-4.1,0-7.4-3.3-7.4-7.4s3.3-7.4,7.4-7.4s7.4,3.3,7.4,7.4v0C58.1,51,54.8,54.3,50.7,54.3
			L50.7,54.3z M54.7,43.3l0.9,0.9l-6.3,6.3l-3.6-3.6l0.9-0.9l2.7,2.7L54.7,43.3z M35.8,32c1.2,0,2.1-0.9,2.1-2.1s-0.9-2.1-2.1-2.1
			c-0.6,0-1.1,0.2-1.5,0.6l-5.1-2.5c0-0.1,0-0.2,0-0.3c0-1.2-0.9-2.1-2.1-2.1c-1.2,0-2.1,0.9-2.1,2.1c0,0.1,0,0.2,0,0.3L20,28.4
			c-0.8-0.8-2.2-0.8-3,0.1c-0.8,0.8-0.8,2.2,0.1,3c0.4,0.4,0.9,0.6,1.4,0.6c0.2,0,0.4,0,0.6-0.1l1.5,2.2l0,0l-1.5,2.3
			c-0.2-0.1-0.4-0.1-0.5-0.1c-1.2,0-2.1,0.9-2.1,2.1c0,1.2,0.9,2.1,2.1,2.1c0.6,0,1.1-0.2,1.5-0.6l5.1,2.5c0,0.1,0,0.2,0,0.3
			c0,1.2,0.9,2.1,2.1,2.1c1.2,0,2.1-0.9,2.1-2.1c0-0.1,0-0.2,0-0.3l5.1-2.5c0.8,0.8,2.2,0.8,3,0c0.8-0.8,0.8-2.2,0-3
			c-0.4-0.4-0.9-0.6-1.5-0.6c-0.2,0-0.4,0-0.5,0.1l-1.5-2.3l0,0l1.5-2.3C35.5,32,35.6,32,35.8,32L35.8,32z M33.7,38.8l-4.6,2.3
			l1.9-2.8l0.7-1l2,1C33.7,38.4,33.7,38.6,33.7,38.8L33.7,38.8z M20.6,38.2l2-1l2.6,3.9l-4.6-2.3C20.7,38.6,20.7,38.4,20.6,38.2
			L20.6,38.2z M29.3,34.5c0-0.2,0-0.4,0-0.6l2-1l0.9,1.3l-0.9,1.3L29.3,34.5z M28.7,32.7c-0.2-0.2-0.5-0.4-0.8-0.5v-4.4l2.7,4
			L28.7,32.7z M27.2,35c-0.4,0-0.8-0.3-0.8-0.8s0.3-0.8,0.8-0.8c0.4,0,0.8,0.3,0.8,0.8S27.6,35,27.2,35L27.2,35z M23.1,35.5
			l-0.9-1.3l0.9-1.3l2,1c0,0.2,0,0.4,0,0.6L23.1,35.5z M25.7,32.7l-1.8-0.9l2.7-4v4.4C26.2,32.3,25.9,32.5,25.7,32.7z M25.7,35.7
			c0.2,0.2,0.5,0.4,0.8,0.5v4.4l-2.7-4L25.7,35.7z M27.9,36.2c0.3-0.1,0.6-0.3,0.8-0.5l1.8,0.9l-2.7,4V36.2z M31.7,31.2L31.7,31.2
			l-2.6-3.9l4.6,2.3c0,0.1,0,0.2,0,0.3c0,0.1,0,0.2,0,0.3L31.7,31.2z M22.6,31.2l-2-1c0-0.1,0-0.2,0-0.2c0-0.1,0-0.2,0-0.3l4.6-2.3
			L22.6,31.2z M35.8,29.1c0.4,0,0.8,0.3,0.8,0.8c0,0.4-0.3,0.8-0.8,0.8c-0.4,0-0.8-0.3-0.8-0.8C35.1,29.4,35.4,29.1,35.8,29.1
			L35.8,29.1z M27.2,24.8c0.4,0,0.8,0.3,0.8,0.8s-0.3,0.8-0.8,0.8s-0.8-0.3-0.8-0.8S26.8,24.8,27.2,24.8L27.2,24.8z M17.8,29.9
			c0-0.4,0.3-0.8,0.8-0.8c0.4,0,0.8,0.3,0.8,0.8c0,0.4-0.3,0.8-0.8,0.8C18.1,30.7,17.8,30.4,17.8,29.9L17.8,29.9z M20.5,31.6
			l1.4,0.7l0,0L21.4,33L20.5,31.6z M21.4,35.4l0.5,0.7l0,0l-0.8,0.4l-0.6,0.3L21.4,35.4z M18.6,39.3c-0.4,0-0.8-0.3-0.8-0.8
			c0-0.4,0.3-0.8,0.8-0.8c0.4,0,0.8,0.3,0.8,0.8C19.3,38.9,19,39.3,18.6,39.3L18.6,39.3z M27.2,43.6c-0.4,0-0.8-0.3-0.8-0.8
			c0-0.4,0.3-0.8,0.8-0.8c0.4,0,0.8,0.3,0.8,0.8l0,0C28,43.2,27.6,43.6,27.2,43.6L27.2,43.6z M36.6,38.5c0,0.4-0.3,0.8-0.8,0.8
			s-0.8-0.3-0.8-0.8s0.3-0.8,0.8-0.8h0C36.2,37.7,36.6,38.1,36.6,38.5z M33.9,36.8l-0.6-0.3l-0.8-0.4l0,0l0.5-0.7L33.9,36.8z
			 M32.5,32.3l1.4-0.7L33,33L32.5,32.3z"/>
		<rect id="Rectangle_409" x="1.2" y="1.5" class="st1" width="64" height="64"/>
	</g>
</g>
</svg>
