<?xml version="1.0" encoding="utf-8"?>
<!-- Generator: Adobe Illustrator 26.5.0, SVG Export Plug-In . SVG Version: 6.00 Build 0)  -->
<svg version="1.1" id="Layer_1" xmlns="http://www.w3.org/2000/svg" xmlns:xlink="http://www.w3.org/1999/xlink" x="0px" y="0px"
	 viewBox="0 0 66 66" style="enable-background:new 0 0 66 66;" xml:space="preserve">
<style type="text/css">
	.st0{fill-rule:evenodd;clip-rule:evenodd;fill:#76B900;}
	.st1{fill:none;}
</style>
<g id="encode-icon" transform="translate(0.01)">
	<path id="_Compound_Path__00000063595337921567320120000008598510918842157454_" class="st0" d="M50.8,25.9h-0.4l-8-4.6h-4.6
		l-8-4.6h-4.6l-8-4.6h-5.3v42.1h5.3l8-4.6h4.6l8-4.6h4.6l8-4.6h5V25.9L50.8,25.9z M49.7,31.6v5.8l-1.8-4.1l1.8-4.1V31.6L49.7,31.6z
		 M17.8,44.1v-26l3.3,15.2l-3.3,15.2V44.1z M37.1,40.7L35,33.3l2.2-7.4V40.7z M38.3,30.4V27h3.4v3.4L38.3,30.4z M41.7,31.6V35h-3.4
		v-3.4H41.7z M38.3,36.1h3.4v3.4h-3.4V36.1z M42.8,39.6V24.6l3.8,8.7L42.8,42V39.6z M43.5,23.3l6,3.4l-2.3,5.2L43.5,23.3z
		 M41.7,25.9h-3.4v-3.4h3.4V25.9z M34.4,31.3l-3.7-12.7l6.4,3.6L34.4,31.3z M25.8,35v-3.4h3.4V35H25.8z M29.2,36.1v3.4h-3.4v-3.4
		L29.2,36.1z M25.8,30.4V27h3.4v3.4L25.8,30.4z M25.8,25.9v-3.4h3.4v3.4H25.8z M24.6,25.9V44l-2.3-10.7l2.3-10.7V25.9L24.6,25.9z
		 M25.8,40.7h3.4v3.4h-3.4V40.7z M30.3,44.1V21.3l3.5,12l-3.5,12l0,0V44.1z M29.2,21.3h-3.4v-3.4h3.4V21.3z M21.7,30.6L18,13.9
		l6.5,3.7L21.7,30.6z M21.7,36l2.8,13L18,52.7L21.7,36z M25.8,45.2h3.4v3.4h-3.4V45.2z M34.4,35.3l2.6,9.1L30.7,48L34.4,35.3z
		 M38.3,40.7h3.4v3.4h-3.4V40.7z M47.3,34.7l2.3,5.2l-6,3.4L47.3,34.7z M13.2,13.4h3.4v3.4h-3.4V13.4z M13.2,17.9h3.4v3.4h-3.4V17.9
		z M13.2,22.5h3.4v3.4h-3.4V22.5z M13.2,27h3.4v3.4h-3.4V27z M13.2,31.6h3.4V35h-3.4V31.6z M13.2,36.1h3.4v3.4h-3.4V36.1z
		 M13.2,40.7h3.4v3.4h-3.4V40.7z M13.2,45.2h3.4v3.4h-3.4V45.2z M13.2,49.8h3.4v3.4h-3.4V49.8z M54.2,39.6h-3.4v-3.4h3.4V39.6z
		 M54.2,35h-3.4v-3.4h3.4V35z M50.8,30.4V27h3.4v3.4L50.8,30.4z"/>
	<path id="_Rectangle__00000142890902582014632750000017767270724840478104_" class="st1" d="M4,4.1h58v58.4H4V4.1z"/>
</g>
</svg>
