<?xml version="1.0" encoding="utf-8"?>
<!-- Generator: Adobe Illustrator 26.5.0, SVG Export Plug-In . SVG Version: 6.00 Build 0)  -->
<svg version="1.1" id="Layer_1" xmlns="http://www.w3.org/2000/svg" xmlns:xlink="http://www.w3.org/1999/xlink" x="0px" y="0px"
	 viewBox="0 0 66 66" style="enable-background:new 0 0 66 66;" xml:space="preserve">
<style type="text/css">
	.st0{fill-rule:evenodd;clip-rule:evenodd;fill:#76B900;}
</style>
<path id="_Compound_Path__00000161593183915972496270000000724559962680364936_" class="st0" d="M55.5,17.4l-4.8-1l1.3-1.3l-0.9-0.9
	l-1.3,1.3l-0.9-4.7l-6.7,6.7c-9.7-6.1-22.4-3.1-28.5,6.6s-3.1,22.4,6.6,28.5c9.7,6.1,22.4,3.1,28.5-6.6c4.2-6.7,4.2-15.2,0-21.9
	L55.5,17.4z M48.9,17.5l3.9,0.8l-5.5,5.5l-3.9-0.8l-0.8-3.9l0.2-0.2l5.3-5.3L48.9,17.5z M50.6,35.1c0,10.7-8.6,19.4-19.3,19.4
	c-10.7,0-19.4-8.6-19.4-19.3s8.6-19.4,19.3-19.4c3.5,0,7,1,10,2.8l0,0l0.9,4.7l-1.5,1.5c-5.8-5.3-14.7-4.9-19.9,0.9
	c-5.3,5.8-4.9,14.7,0.9,19.9c5.8,5.3,14.7,4.9,19.9-0.9c4.9-5.4,4.9-13.6,0-19l1.5-1.5l4.8,1l0,0C49.6,28.1,50.6,31.6,50.6,35.1
	L50.6,35.1z M31.5,35.7l4.4-4.4c0.9,1.1,1.3,2.4,1.3,3.7c0,3.3-2.7,6-6,6s-6-2.7-6-6s2.7-6,6-6c1.4,0,2.7,0.5,3.7,1.3l-4.4,4.4v0.9
	H31.5z M35.9,29.4c-3.1-2.6-7.8-2.2-10.4,0.9c-2.6,3.1-2.2,7.8,0.9,10.4c3.1,2.6,7.8,2.2,10.4-0.9c2.3-2.7,2.3-6.7,0-9.4l3.8-3.8
	c4.7,5.2,4.2,13.2-1,17.9c-5.2,4.7-13.2,4.2-17.9-1c-4.7-5.2-4.2-13.2,1-17.9c4.8-4.3,12.1-4.3,17,0L35.9,29.4z"/>
</svg>
