<?xml version="1.0" encoding="utf-8"?>
<!-- Generator: Adobe Illustrator 26.5.0, SVG Export Plug-In . SVG Version: 6.00 Build 0)  -->
<svg version="1.1" id="Layer_1" xmlns="http://www.w3.org/2000/svg" xmlns:xlink="http://www.w3.org/1999/xlink" x="0px" y="0px"
	 viewBox="0 0 66 66" style="enable-background:new 0 0 66 66;" xml:space="preserve">
<style type="text/css">
	.st0{fill:#76B900;}
	.st1{fill:none;}
</style>
<g id="m48-3d-manipulation" transform="translate(24 24)">
	<g id="Group_329" transform="translate(-24 -24)">
		<path id="Path_129" class="st0" d="M45.1,36.1l1.7,6.4l-6.4,1.7l-1.4-0.8l5.6-1.5L33,35.1l-11.6,6.7l5.6,1.5l-1.4,0.8l-6.4-1.7
			l1.7-6.4l1.4-0.8l-1.5,5.6l11.6-6.7V20.7l-4.1,4.1v-1.6l4.7-4.7l4.7,4.7v1.6l-4.1-4.1v13.4l11.6,6.7l-1.5-5.6L45.1,36.1z
			 M52.5,42.6c0.7,0.7,0.6,1.8-0.1,2.5c-0.4,0.4-1,0.6-1.6,0.4c-6.7,9.8-20.1,12.3-30,5.6c-2.2-1.5-4.1-3.4-5.6-5.6
			c-0.9,0.2-1.9-0.4-2.1-1.3c-0.1-0.6,0-1.2,0.4-1.6C8.4,31.9,12.9,19,23.7,13.8c2.4-1.2,5-1.9,7.7-2.1c0.3-0.9,1.2-1.4,2.2-1.2
			c0.6,0.2,1,0.6,1.2,1.2C45.9,12.7,54.6,22,54.6,33.3C54.6,36.5,53.9,39.7,52.5,42.6L52.5,42.6z M32.4,12.3c0,0.3,0.3,0.6,0.6,0.6
			c0.3,0,0.6-0.3,0.6-0.6l0,0c0-0.3-0.3-0.6-0.6-0.6C32.7,11.7,32.4,12,32.4,12.3L32.4,12.3z M15.1,44.3c0.3-0.2,0.4-0.5,0.2-0.8
			c0,0,0,0,0,0c-0.2-0.3-0.5-0.4-0.8-0.2c0,0,0,0,0,0c-0.3,0.2-0.4,0.5-0.2,0.8C14.5,44.4,14.8,44.4,15.1,44.3L15.1,44.3z
			 M49.8,44.9c-0.6-0.8-0.5-1.9,0.3-2.5c0.4-0.3,0.9-0.4,1.3-0.4c1.3-2.7,2-5.7,2-8.8c0-10.6-8.2-19.5-18.8-20.3
			c-0.4,0.9-1.4,1.3-2.3,1c-0.4-0.2-0.8-0.5-1-1c-10.6,0.8-18.8,9.7-18.8,20.3c0,3,0.7,6,2,8.8c0.2,0,0.5,0,0.7,0
			c0.9,0.3,1.5,1.2,1.2,2.1c-0.1,0.2-0.2,0.4-0.3,0.6c6.4,9.3,19.1,11.6,28.4,5.2C46.6,48.7,48.4,46.9,49.8,44.9L49.8,44.9z
			 M51.5,43.3L51.5,43.3c-0.1-0.1-0.2-0.1-0.3-0.1c-0.2,0-0.4,0.1-0.5,0.3c-0.2,0.3-0.1,0.6,0.2,0.8s0.6,0.1,0.8-0.2
			C51.9,43.8,51.8,43.5,51.5,43.3L51.5,43.3z"/>
		<rect id="Rectangle_411" x="5" y="5.3" class="st1" width="56" height="56"/>
	</g>
</g>
</svg>
