<?xml version="1.0" encoding="utf-8"?>
<!-- Generator: Adobe Illustrator 26.5.0, SVG Export Plug-In . SVG Version: 6.00 Build 0)  -->
<svg version="1.1" id="Layer_1" xmlns="http://www.w3.org/2000/svg" xmlns:xlink="http://www.w3.org/1999/xlink" x="0px" y="0px"
	 viewBox="0 0 66 66" style="enable-background:new 0 0 66 66;" xml:space="preserve">
<style type="text/css">
	.st0{fill-rule:evenodd;clip-rule:evenodd;fill:#76B900;}
	.st1{fill:none;}
</style>
<g id="broadcast-icon" transform="translate(58.145 0.145)">
	<path id="_Compound_Path__00000073717994455935319320000008588843061227508903_" class="st0" d="M-0.1,45.5V15.6h-50.1v29.9h20.1
		l-1.1,3.9h-4.1v1.3H-15v-1.3h-4.1l-1.1-3.9H-0.1z M-48.8,16.9h47.4v27.3h-47.4L-48.8,16.9z M-20.5,49.4h-9.3l1.1-3.9h7.1
		L-20.5,49.4z M-47.5,42.9h44.7V18.2h-44.7V42.9z M-46.1,19.5h42v22.1h-42L-46.1,19.5z M-25.1,35.1c3.9-0.2,7-3.5,6.8-7.4
		s-3.5-7-7.4-6.8c-3.8,0.2-6.8,3.3-6.8,7.1C-32.5,32-29.2,35.2-25.1,35.1z M-25.1,22.1c3.2,0.1,5.7,2.9,5.6,6.1s-2.9,5.7-6.1,5.6
		c-3.1-0.1-5.6-2.7-5.6-5.8C-31.2,24.7-28.4,22-25.1,22.1z M-36.7,36.4h27.1v1.3h-27.1V39H-38v-1.3h-2.7v-1.3h2.7v-1.3h1.4V36.4z
		 M-27.2,24.1v7.6l6-3.8L-27.2,24.1z M-25.8,26.6l2.2,1.4l-2.2,1.4V26.6z"/>
	
		<rect id="_Rectangle__00000153704204460737873580000010701093628493222319_" x="-58.6" y="-0.4" class="st1" width="67" height="67"/>
</g>
</svg>
